<?xml version="1.0" encoding="utf-8"?>
<!-- Generator: Adobe Illustrator 23.0.5, SVG Export Plug-In . SVG Version: 6.00 Build 0)  -->
<svg version="1.1" id="Ebene_1" xmlns="http://www.w3.org/2000/svg" xmlns:xlink="http://www.w3.org/1999/xlink" x="0px" y="0px"
	 viewBox="0 0 218.1 340" style="enable-background:new 0 0 218.1 340;" xml:space="preserve">
<style type="text/css">
	.st0{fill:#F40F41;}
	.st1{fill:#B70F20;}
	.st2{fill:#BC282F;}
	.st3{fill:#FFFFFF;}
</style>
<g>
	<g>
		<path class="st0" d="M109.3,0c-0.1,0-0.2,0-0.3,0C48.8,0,0,48.8,0,109.1c0,13.2,2.3,25.9,6.6,37.6h0l102.1,192.8
			C108.1,266.3,108.9,87.4,109.3,0z"/>
		<path class="st1" d="M109.3,0c-0.4,87.4-1.2,266.2-0.6,339.5l0.3,0.6l102.4-193.4h0c4.3-11.7,6.6-24.4,6.6-37.6
			C218.1,48.9,169.5,0.2,109.3,0z"/>
	</g>
	<ellipse class="st2" cx="109.1" cy="110.6" rx="82.1" ry="85.6"/>
	
		<ellipse transform="matrix(0.9996 -2.911118e-02 2.911118e-02 0.9996 -3.07 3.2205)" class="st3" cx="109.1" cy="107" rx="82.1" ry="82.1"/>
</g>
</svg>
